<svg id="Layer_1" data-name="Layer 1" xmlns="http://www.w3.org/2000/svg" viewBox="0 0 65.31 79.13">
  <g>
    <g>
      <path d="M5.5,68.24a4.43,4.43,0,0,1-2.31-.59,2.66,2.66,0,0,1-1.08-2.5V58.09a3,3,0,0,1,1-2.46,3.51,3.51,0,0,1,2.24-.74c1.74,0,3.59.08,5.49.22l.28,0v2.7h-5c-.57,0-.81.22-.81.74v1.53l5,.14v2.6l-5,.13v1.45c0,.58.22.82.76.82h5.07V68l-.27,0A48.44,48.44,0,0,1,5.5,68.24Z" transform="translate(-2.01)" fill="#fff"/>
      <path d="M16.87,68.17a19.76,19.76,0,0,1-2.11-.12,14.23,14.23,0,0,1-1.91-.32l-.17,0V65.28l.24,0c1,.1,2.29.15,3.83.15a3.14,3.14,0,0,0,1.47-.26.81.81,0,0,0,.41-.8v-.47a.88.88,0,0,0-.26-.7,1.18,1.18,0,0,0-.8-.24H16.49a4.4,4.4,0,0,1-3-.88,3.63,3.63,0,0,1-1-2.84v-.62c0-2.5,1.45-3.77,4.3-3.77a15.4,15.4,0,0,1,2,.13c.68.08,1.31.18,1.87.3l.17,0v2.41h-.23c-1.55-.1-2.74-.16-3.53-.16a2.72,2.72,0,0,0-1.36.27,1,1,0,0,0-.39.92v.34a.94.94,0,0,0,.29.78,1.54,1.54,0,0,0,1,.25h1.25a3.53,3.53,0,0,1,2.66,1,3.44,3.44,0,0,1,.93,2.5v.72a4.21,4.21,0,0,1-.57,2.35,2.9,2.9,0,0,1-1.6,1.18A8.52,8.52,0,0,1,16.87,68.17Z" transform="translate(-2.01)" fill="#fff"/>
      <path d="M32.51,56.73A3.89,3.89,0,0,0,28.9,55H23.34V68.07H28.9a4,4,0,0,0,3.5-1.66,8.64,8.64,0,0,0,1.13-4.89A9.32,9.32,0,0,0,32.51,56.73Zm-2.42,7.75a1.48,1.48,0,0,1-1.44.88H26.3V57.69h2.35a1.77,1.77,0,0,1,1.08.3,1.88,1.88,0,0,1,.61,1.1,10,10,0,0,1,.23,2.43A6.91,6.91,0,0,1,30.09,64.48Z" transform="translate(-2.01)" fill="#fff"/>
      <path d="M42.73,62.88a3.52,3.52,0,0,0,1.35-1.15,4.31,4.31,0,0,0,.58-2.48,4.41,4.41,0,0,0-1-3.31,3.92,3.92,0,0,0-2.79-1H35.39V68.07h3V63.35l1.7,0,2,4.69h3.06Zm-1.37-2.32a1.23,1.23,0,0,1-1,.35h-2V57.69h2a1.38,1.38,0,0,1,1,.32,1.74,1.74,0,0,1,.33,1.24A1.89,1.89,0,0,1,41.36,60.56Z" transform="translate(-2.01)" fill="#fff"/>
      <path d="M53.27,55H49.76l-4.1,13.09h3.05l.79-2.65h4l.8,2.65h3.09Zm-3.05,7.73,1.27-4.54,1.27,4.54Z" transform="translate(-2.01)" fill="#fff"/>
      <path d="M62.71,68.17a19.76,19.76,0,0,1-2.11-.12,14.23,14.23,0,0,1-1.91-.32l-.17,0V65.28l.24,0c1,.1,2.29.15,3.83.15a3.14,3.14,0,0,0,1.47-.26.81.81,0,0,0,.42-.8v-.47a.88.88,0,0,0-.27-.7,1.18,1.18,0,0,0-.8-.24H62.33a4.35,4.35,0,0,1-2.95-.88,3.59,3.59,0,0,1-1-2.84v-.62c0-2.5,1.45-3.77,4.3-3.77a15.4,15.4,0,0,1,2,.13c.68.08,1.31.18,1.87.3l.17,0v2.41h-.23c-1.55-.1-2.74-.16-3.53-.16a2.65,2.65,0,0,0-1.35.27,1,1,0,0,0-.4.92v.34a.94.94,0,0,0,.29.78,1.57,1.57,0,0,0,1,.25h1.24a3.53,3.53,0,0,1,2.66,1,3.44,3.44,0,0,1,.93,2.5v.72a4.21,4.21,0,0,1-.57,2.35,2.9,2.9,0,0,1-1.6,1.18A8.52,8.52,0,0,1,62.71,68.17Z" transform="translate(-2.01)" fill="#fff"/>
    </g>
    <g>
      <circle cx="42.14" cy="17.88" r="3.36" fill="#fff"/>
      <polygon points="58.58 16.8 41.77 0 8.21 33.56 14.92 40.27 8.21 40.28 8.21 45.12 35.06 45.12 35.06 40.28 35.06 40.27 28.35 33.56 35.06 26.85 41.77 33.56 51.79 23.49 48.48 20.14 41.77 26.85 35.06 20.14 21.63 33.56 28.35 40.27 21.63 40.27 14.92 33.56 41.77 6.71 55.2 20.14 58.58 16.8" fill="#fff"/>
    </g>
    <g>
      <path d="M2.86,78.87a1.35,1.35,0,0,1-.68-.7A2.86,2.86,0,0,1,2,77.1V75.28a2,2,0,0,1,.65-1.72,2.81,2.81,0,0,1,1.62-.39,3,3,0,0,1,1.54.3,1.29,1.29,0,0,1,.6.92,3.26,3.26,0,0,1,.06.67l-.77.06a2,2,0,0,0-.1-.78.82.82,0,0,0-.2-.3.73.73,0,0,0-.32-.15,2.41,2.41,0,0,0-.7-.07,2.93,2.93,0,0,0-.74.07,1.12,1.12,0,0,0-.47.2,1.28,1.28,0,0,0-.37,1v2.08a1.14,1.14,0,0,0,.38,1,2.11,2.11,0,0,0,1.18.25,1.8,1.8,0,0,0,1-.19.83.83,0,0,0,.27-.56,3.23,3.23,0,0,0,0-.48h.77a2.2,2.2,0,0,1-.26,1.23,2,2,0,0,1-1.76.65A3.74,3.74,0,0,1,2.86,78.87Z" transform="translate(-2.01)" fill="#fff"/>
      <path d="M9.28,78.87a1.46,1.46,0,0,1-.72-.71,2.83,2.83,0,0,1-.18-1.06V75.28a1.93,1.93,0,0,1,.7-1.72,3,3,0,0,1,1.68-.39q2,0,2.25,1.47a3.54,3.54,0,0,1,.06.69V77a1.94,1.94,0,0,1-.69,1.7,2.7,2.7,0,0,1-1.57.39A3.57,3.57,0,0,1,9.28,78.87Zm1.48-.39a2,2,0,0,0,1.15-.25,1.16,1.16,0,0,0,.36-1V75.13a1.22,1.22,0,0,0-.37-1,1.84,1.84,0,0,0-1.14-.28c-.81,0-1.3.23-1.48.67a2,2,0,0,0-.1.64v2.09a1.11,1.11,0,0,0,.4,1A2.18,2.18,0,0,0,10.76,78.48Z" transform="translate(-2.01)" fill="#fff"/>
      <path d="M15.22,79V73.26h.61l3.31,4.62V73.26h.71V79h-.72l-3.2-4.41V79Z" transform="translate(-2.01)" fill="#fff"/>
      <path d="M25.91,77.42c0,1.14-.63,1.71-1.9,1.71a4.27,4.27,0,0,1-2.18-.54l.28-.61a3.83,3.83,0,0,0,.88.36,3.87,3.87,0,0,0,1,.14,1.77,1.77,0,0,0,.74-.12.92.92,0,0,0,.44-.91,1.51,1.51,0,0,0,0-.38c-.06-.22-.28-.38-.67-.51l-1.4-.46a1.66,1.66,0,0,1-.9-.56,1.5,1.5,0,0,1-.22-.86,1.33,1.33,0,0,1,.55-1.16,2.42,2.42,0,0,1,1.38-.35,3.69,3.69,0,0,1,1.94.41l-.19.63A3.31,3.31,0,0,0,24,73.82a2.15,2.15,0,0,0-.94.16.61.61,0,0,0-.35.52v.2a.7.7,0,0,0,.12.44,1.05,1.05,0,0,0,.47.28l1.46.49a1.83,1.83,0,0,1,.87.53A1.53,1.53,0,0,1,25.91,77.42Z" transform="translate(-2.01)" fill="#fff"/>
      <path d="M30.1,79.13a2.18,2.18,0,0,1-2-.81,2.3,2.3,0,0,1-.27-1.17V73.26h.81v4a1.09,1.09,0,0,0,1,1.22,3.63,3.63,0,0,0,.5,0,1.87,1.87,0,0,0,1-.24,1.09,1.09,0,0,0,.39-1v-4h.81v3.89a1.82,1.82,0,0,1-.67,1.6A2.77,2.77,0,0,1,30.1,79.13Z" transform="translate(-2.01)" fill="#fff"/>
      <path d="M34.55,79V73.26h.81v5.16H38V79Z" transform="translate(-2.01)" fill="#fff"/>
      <path d="M40.67,79V73.92H39v-.66h4.14v.66H41.47V79Z" transform="translate(-2.01)" fill="#fff"/>
      <path d="M44.26,79l2.15-5.78h.71L49.28,79h-.82l-.39-1.12H45.49L45.09,79Zm1.42-1.7h2.2l-1.09-3.16Z" transform="translate(-2.01)" fill="#fff"/>
      <path d="M51,79V73.26h.61L55,77.88V73.26h.71V79h-.72l-3.21-4.41V79Z" transform="translate(-2.01)" fill="#fff"/>
      <path d="M59.06,79V73.92H57.4v-.66h4.14v.66H59.87V79Z" transform="translate(-2.01)" fill="#fff"/>
      <path d="M67.06,77.42q0,1.71-1.89,1.71A4.28,4.28,0,0,1,63,78.59l.29-.61a3.86,3.86,0,0,0,1.87.5,1.72,1.72,0,0,0,.73-.12.91.91,0,0,0,.45-.91,1.51,1.51,0,0,0,0-.38c-.06-.22-.29-.38-.68-.51l-1.39-.46a1.66,1.66,0,0,1-.9-.56,1.51,1.51,0,0,1-.23-.86,1.33,1.33,0,0,1,.56-1.16A2.37,2.37,0,0,1,65,73.17a3.71,3.71,0,0,1,1.94.41l-.2.63a3.27,3.27,0,0,0-1.6-.39,2.12,2.12,0,0,0-.94.16.58.58,0,0,0-.35.52,1.41,1.41,0,0,0,0,.2.7.7,0,0,0,.12.44,1,1,0,0,0,.48.28l1.45.49a1.83,1.83,0,0,1,.87.53A1.53,1.53,0,0,1,67.06,77.42Z" transform="translate(-2.01)" fill="#fff"/>
    </g>
  </g>
</svg>
